<?xml version="1.0" standalone="no"?>
<!DOCTYPE svg PUBLIC "-//W3C//DTD SVG 20010904//EN"
 "http://www.w3.org/TR/2001/REC-SVG-20010904/DTD/svg10.dtd">
<svg version="1.0" xmlns="http://www.w3.org/2000/svg"
 width="80.000000pt" height="80.000000pt" viewBox="0 0 80.000000 80.000000"
 preserveAspectRatio="xMidYMid meet">

<g transform="translate(0.000000,80.000000) scale(0.100000,-0.100000)"
fill="#000000" stroke="none">
<path d="M40 765 c-26 -32 13 -81 48 -59 34 22 22 74 -18 74 -10 0 -23 -7 -30
-15z"/>
<path d="M136 748 c-9 -12 -16 -40 -16 -62 0 -40 0 -40 16 -18 15 21 20 22
205 22 l189 0 0 -171 0 -172 40 -43 40 -44 0 239 c0 218 -2 239 -18 254 -16
15 -47 17 -230 17 -207 0 -211 0 -226 -22z"/>
<path d="M30 457 c0 -214 2 -235 18 -250 16 -15 45 -17 193 -17 123 0 179 4
187 12 7 7 12 32 12 57 0 42 -1 43 -18 28 -16 -14 -43 -17 -165 -17 l-147 0 0
210 0 210 -40 0 -40 0 0 -233z"/>
<path d="M432 368 c-7 -7 -12 -17 -12 -23 0 -6 36 -46 79 -89 80 -79 103 -89
118 -50 4 11 -18 40 -73 95 -43 43 -83 79 -89 79 -6 0 -16 -5 -23 -12z"/>
</g>
</svg>
